<?xml version="1.0" encoding="UTF-8" standalone="no"?>
<!DOCTYPE svg PUBLIC "-//W3C//DTD SVG 1.1//EN" "http://www.w3.org/Graphics/SVG/1.1/DTD/svg11.dtd">
<svg width="100%" height="100%" viewBox="0 0 138 60" version="1.1" xmlns="http://www.w3.org/2000/svg" xmlns:xlink="http://www.w3.org/1999/xlink" xml:space="preserve" xmlns:serif="http://www.serif.com/" style="fill-rule:evenodd;clip-rule:evenodd;stroke-linejoin:round;stroke-miterlimit:2;">
    <g transform="matrix(1,0,0,1,-200.501,-1312)">
        <g transform="matrix(1,0,0,1,0.5,0)">
            <path d="M236.6,1354.53C236.258,1352.26 235.708,1350.02 234.957,1347.84C234.438,1346.33 233.882,1344.83 233.289,1343.34C233.023,1343.61 232.761,1343.89 232.51,1344.18C231.517,1345.31 230.659,1346.54 229.953,1347.86C230.734,1350.07 231.285,1352.36 231.598,1354.69C232.149,1359.08 232.128,1363.52 231.534,1367.91C232.754,1367.82 233.964,1367.64 235.159,1367.38C235.911,1365.45 236.423,1363.44 236.684,1361.38C236.961,1359.11 236.933,1356.8 236.599,1354.53" style="fill:rgb(36,146,197);"/>
        </g>
        <g transform="matrix(1,0,0,1,0.5,0)">
            <path d="M241.83,1363.04C242.169,1362.14 242.473,1361.23 242.725,1360.31C243.242,1358.48 243.529,1356.6 243.578,1354.7C243.601,1352.82 243.382,1350.94 242.927,1349.12C242.491,1347.28 241.836,1345.46 241.315,1343.54C240.779,1341.74 240.48,1339.88 240.425,1338.01C239.327,1338.64 238.259,1339.32 237.225,1340.04C236.417,1340.6 235.639,1341.19 234.893,1341.83C235.587,1343.61 236.259,1345.41 236.793,1347.27C237.484,1349.58 237.951,1351.95 238.186,1354.35C238.411,1356.76 238.314,1359.19 237.896,1361.57C237.549,1363.48 236.997,1365.34 236.248,1367.12C237.833,1366.71 239.375,1366.14 240.855,1365.44C240.983,1365.08 241.149,1364.74 241.293,1364.38C241.48,1363.94 241.658,1363.49 241.829,1363.04" style="fill:rgb(29,86,149);"/>
        </g>
        <g transform="matrix(1,0,0,1,0.5,0)">
            <path d="M254.312,1338.06C254.012,1339.12 253.643,1340.14 253.301,1341.14C252.958,1342.13 252.644,1343.12 252.359,1344.12C251.53,1347.09 251.323,1350.19 251.751,1353.25C251.827,1353.77 251.919,1354.29 252.024,1354.8C252.057,1354.96 252.095,1355.13 252.131,1355.29C255.916,1349.04 256.96,1341.51 255.014,1334.47C254.894,1335.69 254.66,1336.88 254.314,1338.05" style="fill:rgb(99,35,80);"/>
        </g>
        <g transform="matrix(1,0,0,1,0.5,0)">
            <path d="M219.004,1323.31C219.131,1325.53 219.564,1327.71 220.288,1329.82C220.915,1331.6 221.738,1333.32 222.741,1334.93C222.928,1334.63 223.11,1334.32 223.304,1334.02C224.695,1331.92 226.257,1329.95 227.974,1328.11C228.002,1328.08 228.033,1328.05 228.063,1328.02L228.02,1327.76C227.643,1325.32 227.768,1322.84 228.387,1320.45C228.916,1318.55 229.78,1316.76 230.938,1315.15C226.894,1314.93 222.853,1315.65 219.132,1317.26C219.061,1318.15 218.985,1319.05 218.963,1319.94C218.926,1321.07 218.933,1322.19 219.006,1323.31" style="fill:rgb(36,146,197);"/>
        </g>
        <g transform="matrix(1,0,0,1,0.5,0)">
            <path d="M229.684,1320.76C229.307,1322.66 229.275,1324.61 229.59,1326.52C229.957,1326.18 230.324,1325.84 230.703,1325.51C234.176,1322.41 238.25,1320.06 242.67,1318.61C239.463,1316.77 235.906,1315.63 232.23,1315.26L232.038,1315.25C231.554,1315.98 231.124,1316.75 230.75,1317.55C230.273,1318.58 229.916,1319.66 229.684,1320.76" style="fill:rgb(29,86,149);"/>
        </g>
        <g transform="matrix(1,0,0,1,0.5,0)">
            <path d="M222.516,1361.54C221.862,1359.54 220.948,1357.63 219.797,1355.87C219.176,1354.88 218.527,1353.91 217.851,1352.96C217.494,1354.92 217.286,1356.9 217.228,1358.9C217.178,1360.71 217.259,1362.53 217.473,1364.34C217.504,1364.59 217.538,1364.85 217.563,1365.12C219.422,1366.06 221.387,1366.78 223.416,1367.26C223.404,1366.37 223.337,1365.49 223.216,1364.61C223.061,1363.57 222.827,1362.55 222.516,1361.55M243.754,1319.26C241.569,1320.03 239.483,1321.06 237.539,1322.32C235.524,1323.64 233.641,1325.15 231.917,1326.83C231.274,1327.45 230.652,1328.1 230.052,1328.77C229.852,1328.99 229.638,1329.21 229.437,1329.44C229.137,1329.79 228.845,1330.13 228.553,1330.48C228.069,1331.05 227.599,1331.63 227.144,1332.23C226.417,1333.18 225.727,1334.17 225.073,1335.17C224.698,1335.74 224.335,1336.32 223.984,1336.9C224.959,1338.41 225.984,1339.92 226.927,1341.52C227.677,1342.78 228.36,1344.08 228.971,1345.42C229.554,1344.49 230.211,1343.61 230.935,1342.79C231.414,1342.26 231.921,1341.75 232.447,1341.26C232.973,1340.77 233.54,1340.28 234.115,1339.83C234.764,1339.32 235.433,1338.84 236.122,1338.38C237.556,1337.48 239.041,1336.66 240.568,1335.92C240.778,1334.38 241.22,1332.87 241.879,1331.46C242.729,1329.63 243.785,1327.91 245.026,1326.32C245.976,1325.06 246.989,1323.85 248.062,1322.7C246.751,1321.4 245.307,1320.25 243.754,1319.26" style="fill:rgb(194,34,82);"/>
        </g>
        <g transform="matrix(1,0,0,1,0.5,0)">
            <path d="M252.826,1337.53C254.672,1333.56 253.643,1330.67 253.347,1330.06C253.21,1329.78 253.074,1329.5 252.927,1329.23C251.799,1327.09 250.383,1325.12 248.72,1323.37C248.393,1323.81 248.068,1324.24 247.752,1324.68C247.19,1325.47 246.654,1326.27 246.145,1327.09C245.142,1328.69 244.295,1330.4 243.618,1332.17C243.305,1333.04 243.047,1333.92 242.845,1334.82L242.837,1334.86C242.651,1335.74 242.55,1336.63 242.537,1337.52C242.517,1339.38 242.767,1341.23 243.278,1343.01C243.77,1344.85 244.334,1346.76 244.716,1348.73C245.122,1350.72 245.254,1352.75 245.107,1354.78C244.942,1356.78 244.527,1358.76 243.872,1360.66C243.553,1361.6 243.192,1362.52 242.788,1363.43C242.588,1363.88 242.379,1364.33 242.161,1364.78L242.161,1364.79C245.9,1362.76 249.096,1359.85 251.476,1356.33C251.397,1356.18 251.328,1356.02 251.269,1355.87C250.974,1355.1 250.714,1354.32 250.488,1353.52C250.177,1352.45 249.946,1351.36 249.798,1350.26C249.508,1348.01 249.698,1345.72 250.36,1343.55C251.027,1341.48 251.855,1339.46 252.837,1337.53" style="fill:rgb(40,52,107);"/>
        </g>
        <g transform="matrix(1,0,0,1,0.5,0)">
            <path d="M230.647,1365.05C230.643,1363.92 230.61,1362.79 230.547,1361.66C230.444,1359.42 230.198,1357.18 229.811,1354.97C229.539,1353.48 229.181,1352 228.739,1350.55C228.533,1349.88 228.304,1349.21 228.052,1348.56C227.945,1348.27 227.824,1348 227.709,1347.71C226.976,1345.94 226.107,1344.23 225.109,1342.59C224.383,1341.37 223.601,1340.16 222.825,1338.93C222.4,1338.26 221.985,1337.58 221.58,1336.9L221.505,1336.78C220.295,1334.75 219.341,1332.58 218.665,1330.32C218.041,1328.05 217.727,1325.7 217.73,1323.35C217.723,1322.19 217.772,1321.03 217.878,1319.87C217.947,1319.14 218.026,1318.42 218.129,1317.7C216.951,1318.27 215.816,1318.92 214.734,1319.65C213.965,1321.57 213.309,1323.53 212.767,1325.53C212.212,1327.59 211.869,1329.7 211.744,1331.83C211.625,1333.93 211.799,1336.03 212.26,1338.08C212.497,1339.09 212.806,1340.09 213.184,1341.06C213.555,1342.04 213.988,1342.99 214.478,1343.92C215.286,1345.41 216.174,1346.86 217.139,1348.26L217.868,1349.35L218.448,1350.19C219.485,1351.7 220.525,1353.25 221.459,1354.88C222.594,1356.84 223.453,1358.94 224.011,1361.13C224.277,1362.23 224.432,1363.36 224.474,1364.49C224.519,1365.48 224.478,1366.48 224.353,1367.46C224.736,1367.54 225.12,1367.61 225.508,1367.67C225.868,1367.72 226.23,1367.77 226.592,1367.81C226.68,1367.82 226.768,1367.83 226.855,1367.84C227.074,1367.86 227.291,1367.88 227.507,1367.89C228.541,1367.98 229.579,1368 230.615,1367.96C230.633,1366.99 230.646,1366.02 230.646,1365.05" style="fill:rgb(93,151,66);"/>
        </g>
        <g transform="matrix(1,0,0,1,0.5,0)">
            <path d="M210.944,1357.6C210.705,1356.28 210.341,1354.99 209.855,1353.74C208.813,1351.24 207.61,1348.81 206.255,1346.47C205.583,1345.24 204.982,1343.98 204.454,1342.68C203.966,1341.45 203.565,1340.18 203.254,1338.89C202.426,1346.97 205.378,1354.99 211.244,1360.6C211.218,1359.59 211.117,1358.59 210.944,1357.6" style="fill:rgb(93,57,32);"/>
        </g>
        <g transform="matrix(1,0,0,1,0.5,0)">
            <path d="M232.58,1312.16C231.574,1312.05 230.562,1312 229.551,1312C213.34,1312 200.001,1325.34 200.001,1341.55C200.001,1357.76 213.34,1371.1 229.551,1371.1C244.622,1371.1 257.4,1359.57 258.945,1344.58C260.599,1328.35 248.805,1313.85 232.58,1312.16ZM232.433,1313.58C246.697,1315.05 257.668,1327.21 257.668,1341.55C257.668,1356.98 244.976,1369.67 229.552,1369.67C214.128,1369.67 201.436,1356.98 201.436,1341.55C201.436,1340.59 201.485,1339.63 201.584,1338.67C203.191,1323.23 216.992,1312.01 232.433,1313.58L232.433,1313.58ZM276.278,1344.55C276.28,1344.51 276.28,1344.47 276.28,1344.43C276.28,1342.63 274.804,1341.16 273.009,1341.16C272.893,1341.16 272.777,1341.16 272.661,1341.17C270.73,1341.1 269.076,1342.62 268.991,1344.55L276.278,1344.55ZM268.99,1347.22C269.151,1349.17 270.85,1350.68 272.811,1350.6C274.32,1350.61 275.746,1349.89 276.634,1348.67L279.182,1350.6C277.742,1352.44 275.509,1353.5 273.169,1353.44C268.869,1353.44 265.436,1350.45 265.436,1345.98C265.436,1341.5 268.873,1338.51 273.17,1338.51C277.139,1338.51 279.834,1341.3 279.834,1346.24L279.834,1347.22L268.99,1347.22L268.99,1347.22Z" style="fill:rgb(138,141,140);"/>
        </g>
        <g transform="matrix(1,0,0,1,0.5,0)">
            <path d="M282.855,1332.04L286.406,1332.04L286.406,1349.8L295.875,1349.8L295.875,1353.35L282.855,1353.35L282.855,1332.04ZM298.242,1353.35L301.793,1353.35L301.793,1332.04L298.242,1332.04L298.242,1353.35ZM306.528,1332.04L319.548,1332.04L319.548,1335.59L310.079,1335.59L310.079,1341.51L319.548,1341.51L319.548,1345.06L310.079,1345.06L310.079,1353.35L306.528,1353.35L306.528,1332.04ZM323.099,1332.04L337.299,1332.04L337.299,1335.59L326.65,1335.59L326.65,1340.33L336.119,1340.33L336.119,1343.88L326.65,1343.88L326.65,1349.8L337.303,1349.8L337.303,1353.35L323.103,1353.35L323.103,1332.04L323.099,1332.04Z" style="fill:rgb(103,104,102);"/>
        </g>
        <g transform="matrix(1,0,0,1,0.5,0)">
            <path d="M216.527,1364.53C216.418,1363.9 216.325,1363.26 216.248,1362.62C216.1,1361.39 216.012,1360.14 215.985,1358.89C215.935,1356.39 216.11,1353.89 216.51,1351.42L216.562,1351.12C216.425,1350.92 216.287,1350.73 216.151,1350.53C214.85,1348.73 213.68,1346.83 212.651,1344.86C212.135,1343.86 211.682,1342.82 211.296,1341.75C210.919,1340.68 210.624,1339.58 210.415,1338.46C210.001,1336.24 209.916,1333.96 210.163,1331.71C210.629,1327.91 211.674,1324.21 213.263,1320.73C207.201,1325.09 202.7,1334.61 204.237,1338.29C204.769,1339.53 205.382,1340.74 206.072,1341.9C206.759,1343.07 207.451,1344.24 208.117,1345.46C209.54,1347.9 210.668,1350.5 211.479,1353.21C211.859,1354.59 212.111,1356 212.233,1357.43C212.321,1358.49 212.33,1359.56 212.261,1360.63L212.218,1361.15C212.207,1361.25 212.192,1361.35 212.174,1361.44C213.517,1362.61 214.975,1363.65 216.526,1364.53C216.526,1364.52 216.526,1364.51 216.526,1364.53" style="fill:rgb(22,91,49);"/>
        </g>
    </g>
</svg>
