<?xml version="1.0" encoding="UTF-8" standalone="no"?>
<!DOCTYPE svg PUBLIC "-//W3C//DTD SVG 1.1//EN" "http://www.w3.org/Graphics/SVG/1.1/DTD/svg11.dtd">
<svg width="100%" height="100%" viewBox="0 0 32 21" version="1.1" xmlns="http://www.w3.org/2000/svg" xmlns:xlink="http://www.w3.org/1999/xlink" xml:space="preserve" xmlns:serif="http://www.serif.com/" style="fill-rule:evenodd;clip-rule:evenodd;stroke-linecap:round;">
    <g transform="matrix(1,0,0,1,-224.913,-208.999)">
        <g transform="matrix(1,0,0,1,30,187)">
            <g transform="matrix(1,0,0,1,193.917,20.71)">
                <path d="M30.244,3.37C29.373,3.416 28.68,4.145 28.68,5.018C28.68,5.674 29.072,6.271 29.675,6.532L24.759,10.241C24.203,10.661 23.524,10.888 22.827,10.888C21.732,10.888 20.71,10.327 20.122,9.404L17.007,4.521C17.724,4.33 18.226,3.676 18.226,2.934C18.226,2.034 17.485,1.292 16.584,1.292C15.684,1.292 14.942,2.034 14.942,2.934C14.942,3.676 15.445,4.33 16.162,4.521L13.042,9.404C12.454,10.327 11.432,10.888 10.337,10.888C9.64,10.888 8.961,10.661 8.405,10.241L3.49,6.533C4.197,6.261 4.666,5.578 4.666,4.82C4.666,3.814 3.838,2.985 2.831,2.985C1.824,2.985 0.996,3.814 0.996,4.82C0.996,5.827 1.824,6.655 2.831,6.655C2.844,6.655 2.858,6.655 2.871,6.655L2.945,6.655C3.997,9.752 4.588,12.986 4.699,16.255C4.742,17.499 4.713,18.744 4.613,19.984L28.553,19.984C28.431,18.744 28.387,17.498 28.421,16.252C28.51,12.977 29.117,9.737 30.221,6.652C30.246,6.654 30.271,6.654 30.295,6.652C30.34,6.656 30.385,6.658 30.43,6.658C31.335,6.658 32.08,5.913 32.08,5.008C32.08,4.102 31.335,3.358 30.43,3.358C30.368,3.358 30.306,3.361 30.244,3.368L30.244,3.37Z" style="fill:rgb(252,188,26);fill-rule:nonzero;"/>
                <path d="M3.039,3.946C3.644,4.318 3.887,5.076 3.61,5.73C3.527,5.86 3.473,6.008 3.453,6.162C3.461,6.282 3.503,6.396 3.575,6.492C4.148,6.222 4.515,5.643 4.515,5.01C4.515,4.111 3.775,3.371 2.876,3.371C2.358,3.371 1.87,3.616 1.561,4.031C2,3.733 2.569,3.701 3.039,3.947L3.039,3.946ZM5.311,8.982C5.734,9.672 6.276,10.281 6.911,10.782C8.021,11.495 9.44,11.534 10.587,10.882C9.805,10.945 9.027,10.718 8.402,10.245L3.724,6.711C4.254,7.466 4.782,8.223 5.311,8.982ZM29.913,7.536C29.548,7.975 29.088,8.361 28.713,8.783C27.806,9.906 27.269,11.283 27.175,12.723C27.093,14.663 27.528,16.59 28.436,18.307C28.408,17.623 28.403,16.938 28.421,16.254C28.507,13.292 29.009,10.357 29.913,7.535L29.913,7.536ZM31.937,5.013C31.871,4.159 31.149,3.491 30.292,3.491C29.465,3.491 28.759,4.113 28.655,4.934L28.655,5.016C28.971,4.842 29.338,4.783 29.693,4.851C30.378,5.154 30.704,5.956 30.426,6.651C31.274,6.579 31.934,5.864 31.937,5.013ZM17.003,3.375C17.057,3.624 17.056,3.883 17.127,4.129C17.159,4.236 17.203,4.339 17.256,4.436C17.854,4.176 18.242,3.583 18.242,2.931C18.242,2.03 17.501,1.289 16.6,1.289C16.008,1.289 15.459,1.609 15.169,2.126C15.999,2.054 16.766,2.576 17.003,3.375Z" style="fill:white;fill-opacity:0.3;fill-rule:nonzero;"/>
                <ellipse cx="16.599" cy="19.986" rx="11.986" ry="1.823" style="fill:rgb(224,157,10);"/>
                <path d="M16.603,17.833C16.103,17.833 4.287,17.858 4.287,19.978C4.287,22.098 16.096,22.123 16.603,22.123C17.11,22.123 28.919,22.098 28.919,19.978C28.919,17.858 17.103,17.833 16.603,17.833ZM16.603,21.808C10.641,21.808 5.703,21.148 4.774,20.28C4.877,20.223 4.94,20.114 4.939,19.996C5.124,19.456 9.178,18.496 16.597,18.496C24.016,18.496 28.068,19.46 28.253,19.981C28.254,20.103 28.322,20.215 28.43,20.271C27.516,21.145 22.568,21.808 16.603,21.808Z" style="fill:rgb(181,121,0);fill-rule:nonzero;"/>
                <path d="M4.613,17.016C4.613,16.009 9.979,15.201 16.599,15.201C23.219,15.201 28.585,16.018 28.585,17.016" style="fill:none;stroke:rgb(224,157,10);stroke-width:1px;"/>
                <path d="M15.523,11.239L16.455,12.864C16.485,12.915 16.539,12.946 16.597,12.946C16.656,12.946 16.71,12.915 16.74,12.864L17.674,11.239C17.703,11.188 17.703,11.125 17.674,11.074L16.74,9.45C16.711,9.398 16.656,9.366 16.597,9.366C16.537,9.366 16.482,9.398 16.453,9.45L15.521,11.074C15.492,11.125 15.493,11.188 15.523,11.239ZM20.744,12.536L20.067,13.713C20.046,13.75 20.006,13.772 19.964,13.772C19.922,13.772 19.882,13.75 19.861,13.713L19.184,12.536C19.162,12.499 19.162,12.454 19.184,12.417L19.859,11.241C19.88,11.203 19.92,11.18 19.963,11.18C20.006,11.18 20.046,11.203 20.067,11.241L20.744,12.417C20.766,12.454 20.766,12.499 20.744,12.536ZM14.018,12.536L13.343,13.713C13.322,13.75 13.282,13.772 13.24,13.772C13.198,13.772 13.158,13.75 13.137,13.713L12.454,12.536C12.432,12.499 12.432,12.454 12.454,12.417L13.129,11.24C13.15,11.202 13.19,11.179 13.233,11.179C13.276,11.179 13.316,11.202 13.337,11.24L14.012,12.417C14.036,12.452 14.039,12.498 14.019,12.536L14.018,12.536Z" style="fill:white;fill-rule:nonzero;"/>
                <path d="M16.459,9.451C16.492,9.393 16.558,9.361 16.624,9.37L16.624,12.944C16.558,12.953 16.493,12.922 16.459,12.865L15.527,11.24C15.498,11.189 15.498,11.126 15.527,11.075L16.459,9.451Z" style="fill:rgb(242,242,242);fill-rule:nonzero;"/>
            </g>
        </g>
    </g>
</svg>
