<?xml version="1.0" encoding="utf-8"?>
<svg xmlns="http://www.w3.org/2000/svg" xmlns:xlink="http://www.w3.org/1999/xlink" version= "1.1" width="720px" height="1424px" viewBox="0 0 720 1424">
<g id="layer1">
<g style="fill:rgb(200,231,255); fill-opacity:1.0; stroke-linejoin: miter">
<path d="M1355.5642,760.2753L1348.7964,874.514Q1298.273,1219.9071,1045.5693,1428.136Q791.1094,1636.207,444.6359,1598.9144Q113.8825,1545.997,-85.6196,1281.9972Q-149.54616,1196.6576,-191.16635,1095.8473L-226.24483,992.16693Q-255.26396,885.1172,-256.1848,768.5835Q-249.38673,410.90985,-23.217316,172.26183Q202.95213,-66.386185,545.3516,-77.176285Q887.8441,-69.916695,1116.4619,166.387Q1345.0796,402.69064,1355.5642,760.2753"/>
</g>
<g style="fill:rgb(97,175,167); fill-opacity:1.0; stroke-linejoin: miter">
<path d="M779.5074,878.5615L779.5074,878.5624L779.5004,878.5615Q740.1592,878.5617,700.82477,878.5617L700.82477,878.56256Q740.166,878.5617,779.5074,878.5615 Z"/>
</g>
<g style="fill:rgb(97,175,167); fill-opacity:1.0; stroke-linejoin: miter">
<path d="M763.62115,875.6632L779.51587,878.5615L779.5158,878.5624L763.62115,875.6632 Z"/>
</g>
<g style="fill:rgb(97,175,167); fill-opacity:1.0; stroke-linejoin: miter">
<path d="M743.9585,872.0783L757.84625,874.6102L757.84625,874.61115L743.9587,872.0783 Z"/>
</g>
<g style="fill:rgb(97,175,167); fill-opacity:1.0; stroke-linejoin: miter">
<path d="M692.404,871.5623L719.11566,871.83L743.9585,872.0783L692.404,871.5623 Z"/>
</g>
<g style="fill:rgb(97,175,167); fill-opacity:1.0; stroke-linejoin: miter">
<path d="M779.5197,878.5615L779.5197,878.5622L779.51355,878.5615Q779.51666,878.5615,779.5197,878.5615 Z"/>
</g>
<g style="fill:rgb(0,0,0); fill-opacity:0.21176471; stroke-linejoin: miter">
<path d="M551.15424,41.709854Q256.81158,50.9855,62.385727,256.13806Q-132.04013,461.29068,-137.8841,768.76324Q-137.44019,824.9447,-129.39917,878.5618L-53.177826,878.5635L-53.177826,878.5642L-53.21068,865.99176L-53.215454,864.16345L-53.215424,864.17206L-53.215622,864.10046L-53.194916,871.5883L-53.175674,878.562Q319.36743,878.56177,691.9104,878.5617L692.36176,871.5619L691.9157,878.5617Q735.71155,878.5617,779.5074,878.5615L779.5198,878.5622L757.84625,874.6102L757.84625,874.61096L778.0125,878.28564L778.0125,878.2864L779.0865,878.4814L779.52594,878.5615L848.65247,878.5622L848.65247,878.5629L817.86365,872.81775L657.89435,842.9816L817.8638,872.81775L1239.1538,877.0337Q1240.5674,868.4798,1241.8333,859.82574L1247.6511,761.6209Q1238.638,454.225,1042.1074,251.0878Q845.5767,47.95055,551.15424,41.709854 Z M692.92163,862.77496L743.9587,872.0783L743.9587,872.079L743.9587,872.0783L757.84625,874.6102L757.84625,874.61096L743.9585,872.079L692.36176,871.5619L692.36176,871.5626L743.9585,872.0783L692.92163,862.77496 Z"/>
</g>
<g style="fill:rgb(0,0,0); fill-opacity:0.21176471; stroke-linejoin: miter">
<path d="M-135.27689,892.3241L-135.27689,892.32495L-135.27689,892.3241 Z"/>
</g>
<g style="fill:rgb(0,0,0); fill-opacity:0.21176471; stroke-linejoin: miter">
<path d="M-135.31903,876.1962L-135.31372,878.23566L-135.27689,892.3241L-135.31903,876.1962 Z"/>
</g>
<g style="fill:rgb(51,146,189); fill-opacity:1.0; stroke-linejoin: miter">
<path d="M361.8728,1121.1395L335.0924,1129.3064Q121.93631,1196.8125,61.137512,1182.664Q33.400772,1177.071,17.430847,1161.9169Q-3.5939188,1143.8372,-21.304056,1094.933Q-36.041077,1090.9266,-42.169178,1077.4896Q-52.74283,1050.9052,-52.828278,1004.29974L-53.367462,809.1574Q-62.799793,589.3166,-59.00923,582.7578Q-57.83052,495.82623,0.65539646,481.38046L69.0369,466.87115Q97.35554,463.21606,122.6879,462.9199Q186.15282,460.65698,443.90173,470.1404L361.8728,1121.1395"/>
</g>
<g style="fill:rgb(155,219,248); fill-opacity:1.0; stroke-linejoin: miter">
<path d="M125.099075,1154.1211L125.09906,1154.1215L115.3598,500.20013Q233.0732,498.39008,350.78653,496.57993L347.60654,1098.0314L125.099075,1154.1211"/>
</g>
<g style="fill:rgb(51,146,189); fill-opacity:1.0; stroke-linejoin: miter">
<path d="M642.3104,799.85315L639.95825,845.6799Q623.3332,984.16656,542.975,1067.1613Q462.06073,1150.088,352.4777,1134.3494Q247.89838,1112.376,185.24583,1005.99243Q165.17142,971.60455,152.18494,931.05817L141.27411,889.37494Q132.28711,846.353,132.21011,799.58813Q135.0196,656.0755,207.03662,560.8154Q279.0536,465.55566,387.43573,461.99042Q495.8141,465.6683,567.7318,561.0029Q639.64984,656.3375,642.3104,799.85315"/>
</g>
<g style="fill:rgb(0,188,212); fill-opacity:1.0; stroke-linejoin: miter">
<path d="M397.49014,846.82336L397.49014,846.8236Q378.36728,776.08344,397.49014,846.82336"/>
</g>
<g style="fill:rgb(208,240,255); fill-opacity:1.0; stroke-linejoin: miter">
<path d="M567.5905,800.7747L566.6688,819.08636Q560.15497,874.4236,528.6724,907.5871Q496.97217,940.7236,454.04056,934.4353Q413.0695,925.6553,388.5244,883.1463Q363.99927,840.3433,368.6691,782.35913Q375.18277,727.0218,406.66534,693.85834Q438.3656,660.7218,481.2972,667.0103Q522.2684,675.79004,546.8135,718.299Q554.678,732.0398,559.7654,748.24133L564.03986,764.89746Q567.56055,782.0883,567.5905,800.7747"/>
</g>
<g style="fill:rgb(104,158,183); fill-opacity:1.0; stroke-linejoin: miter">
<path d="M543.98914,832.15717L395.47137,868.4989L421.80725,925.845L583.08435,970.8443L582.3169,1019.11035L588.83704,1023.1217L586.87646,1069.1226L594.9089,1071.8662L591.4917,1118.9319L600.1268,1122.9684L596.9068,1160.814L917.1973,1309.2418L996.8483,1252.3451L996.0438,1203.6776L1003.7643,1193.6407L1000.8687,1145.9971L1009.1339,1138.7411L1009.56586,1121.5836L1170.169,1168.8784L1234.1157,1115.0953L1257.0759,965.6115L607.9574,847.28723L543.98914,832.15717 Z"/>
</g>
<g style="fill:rgb(0,0,0); fill-opacity:1.0; stroke-linejoin: miter">
<path d="M565.6594,864.1586L565.6594,864.1593Q575.8778,866.52783,578.91266,867.7545Q583.77435,869.8299,583.80566,870.393Q586.94635,873.47546,580.15454,877.44617Q575.7842,880.06836,568.7516,882.3456Q559.7339,884.8875,557.5633,885.01434Q544.1205,887.16565,534.08215,884.066Q521.4008,879.8931,514.1389,869.84216Q506.88287,859.79065,507.7127,847.8207L508.25397,843.95593Q509.02252,840.096,510.51593,836.4303Q513.5948,829.0118,518.47015,823.4132Q528.3088,811.8817,539.0989,814.5318Q544.58466,815.3857,556.56067,825.2405L565.6594,864.1586"/>
</g>
<g style="fill:rgb(0,0,0); fill-opacity:1.0; stroke-linejoin: miter">
<path d="M581.13245,848.3043L581.13245,848.3047Q581.13245,848.3054,581.13245,848.3043"/>
</g>
<g style="fill:rgb(255,188,150); fill-opacity:1.0; stroke-linejoin: miter">
<path d="M540.9556,826.02106L542.31934,825.25934Q557.05743,816.26587,568.80505,817.4895Q575.23474,817.8943,584.25653,821.36444Q593.14417,824.8398,598.535,829.3827Q602.05383,832.6537,602.0561,835.77026Q602.26416,838.37604,600.2214,842.95856L616.62866,848.6971L600.9531,876.0253L575.384,876.2175Q565.65393,880.6127,561.5209,881.263Q556.3709,882.15393,554.21,880.2888Q552.99414,879.57806,551.89105,876.7418Q551.0423,874.0646,551.9882,871.8181Q553.24585,869.2145,558.6128,868.9629Q541.707,866.2525,537.1595,864.0396Q533.89777,862.6852,532.0408,860.974Q530.3442,859.78467,529.1258,856.17053Q527.5622,851.014,532.85486,838.1768L533.4104,836.7641L540.9556,826.02106"/>
</g>
<g style="fill:rgb(255,255,255); fill-opacity:1.0; stroke-linejoin: miter">
<path d="M608.70355,845.3474L608.70355,845.3479L596.1917,875.02386Q599.3905,876.118,602.58923,877.21204Q609.4102,861.7713,616.2312,846.3306L608.70355,845.3474"/>
</g>
<g style="fill:rgb(255,255,255); fill-opacity:1.0; stroke-linejoin: miter">
<path d="M611.48566,851.82764L612.1659,850.52545Q615.8813,843.23047,618.62024,840.56525Q621.1295,837.95325,624.89703,837.9405Q626.039,837.89465,628.2881,838.29083L693.6917,850.69006L688.0191,939.7153Q642.9372,935.9723,622.3798,931.1493Q608.60095,927.43243,607.20825,926.27985Q598.9497,922.473,595.20874,917.3303Q591.46783,912.1879,591.0572,906.1071Q590.6467,900.0265,592.37994,893.4053Q595.16925,880.3347,611.48566,851.82764"/>
</g>
<g style="fill:rgb(255,188,150); fill-opacity:1.0; stroke-linejoin: miter">
<path d="M1004.272,934.7849L1008.96155,936.3331Q1025.3333,941.69885,1031.8193,943.3636Q1042.6069,946.1112,1044.4539,946.28906Q1057.5496,948.7069,1065.5718,946.65765Q1073.8384,945.1194,1081.231,937.1638Q1082.2122,936.2899,1084.8152,931.7759Q1085.5759,931.0919,1089.3313,919.17816Q1091.0117,916.096,1091.7356,915.71436Q1097.73,911.0404,1104.9297,912.5162Q1108.5359,913.39996,1109.5369,917.1055Q1109.9277,922.6098,1107.355,928.2725Q1106.1533,931.3066,1104.5791,934.6016Q1093.6538,955.2181,1086.2483,971.5714Q1084.0266,975.7201,1081.863,976.00366Q1080.9834,976.26196,1078.7451,975.86554Q1061.5127,970.9918,1040.0457,967.5411Q1017.4338,963.7786,969.2919,957.1162L1004.272,934.7849"/>
</g>
<g style="fill:rgb(255,188,150); fill-opacity:1.0; stroke-linejoin: miter">
<path d="M1005.30255,912.4305L1009.9922,913.97876Q1026.3638,919.34467,1032.8496,921.0095Q1043.637,923.7571,1045.4841,923.935Q1058.5801,926.3529,1066.6023,924.30365Q1074.8687,922.7654,1082.261,914.8097Q1083.2422,913.9357,1085.8455,909.42206Q1086.606,908.7379,1090.3613,896.82465Q1092.042,893.7424,1092.7654,893.3609Q1098.7598,888.6869,1105.96,890.16266Q1109.5662,891.0464,1110.5669,894.752Q1110.9583,900.25635,1108.385,905.9188Q1107.1836,908.95276,1105.6094,912.24786Q1094.6841,932.86383,1087.279,949.21747Q1085.0574,953.3662,1082.8938,953.64984Q1082.0142,953.9079,1079.7759,953.5115Q1062.5432,948.63776,1041.0764,945.1869Q1018.4643,941.42456,970.3226,934.7627L1005.30255,912.4305"/>
</g>
<g style="fill:rgb(148,221,255); fill-opacity:1.0; stroke-linejoin: miter">
<path d="M594.13525,1042.9818L597.332,1047.8754Q614.131,1075.5184,636.43274,1082.2905Q651.24316,1086.2123,662.6887,1085.3605L728.7853,1079.2289Q748.0422,1078.2267,758.36127,1080.6653Q764.7229,1081.1196,778.9554,1089.7288Q784.57837,1093.6597,789.7594,1098.4154Q807.64526,1115.9015,817.9473,1123.2589Q835.7703,1134.5275,841.39825,1135.6646Q883.3182,1150.57,976.1586,1154.0219Q992.1959,1052.2799,1003.03186,1013.375Q1013.3654,972.3349,1039.667,914.1866L657.89435,842.9816Q637.11426,868.8073,626.4646,904.1411Q615.86127,935.4738,594.13525,1042.9818"/>
</g>
</g>
</svg>