<?xml version="1.0" encoding="UTF-8" standalone="no"?>
<svg
   xmlns:dc="http://purl.org/dc/elements/1.1/"
   xmlns:cc="http://creativecommons.org/ns#"
   xmlns:rdf="http://www.w3.org/1999/02/22-rdf-syntax-ns#"
   xmlns:svg="http://www.w3.org/2000/svg"
   xmlns="http://www.w3.org/2000/svg"
   xmlns:sodipodi="http://sodipodi.sourceforge.net/DTD/sodipodi-0.dtd"
   xmlns:inkscape="http://www.inkscape.org/namespaces/inkscape"
   inkscape:version="1.0 (4035a4f, 2020-05-01)"
   sodipodi:docname="magnetic-resonance-imaging-5366912.svg"
   id="svg103"
   viewBox="0 0 706.57214 737.26361"
   height="737.26361"
   width="706.57214"
   version="1.1">
  <metadata
     id="metadata109">
    <rdf:RDF>
      <cc:Work
         rdf:about="">
        <dc:format>image/svg+xml</dc:format>
        <dc:type
           rdf:resource="http://purl.org/dc/dcmitype/StillImage" />
        <dc:title></dc:title>
      </cc:Work>
    </rdf:RDF>
  </metadata>
  <defs
     id="defs107" />
  <sodipodi:namedview
     fit-margin-bottom="0"
     fit-margin-right="0"
     fit-margin-left="0"
     fit-margin-top="0"
     inkscape:current-layer="svg103"
     inkscape:window-maximized="0"
     inkscape:window-y="25"
     inkscape:window-x="0"
     inkscape:cy="772.39405"
     inkscape:cx="346.2263"
     inkscape:zoom="0.15135164"
     showgrid="false"
     id="namedview105"
     inkscape:window-height="760"
     inkscape:window-width="1258"
     inkscape:pageshadow="2"
     inkscape:pageopacity="0"
     guidetolerance="10"
     gridtolerance="10"
     objecttolerance="10"
     borderopacity="1"
     bordercolor="#666666"
     pagecolor="#ffffff" />
  <g
     transform="matrix(0.43838846,0,0,0.43838846,112.30846,33.833193)"
     id="layer1">
    <g
       id="g12"
       style="fill:#c8e7ff;fill-opacity:1;stroke-linejoin:miter">
      <path
         id="path10"
         d="m 1355.5642,760.2753 -6.7678,114.2387 q -50.5234,345.3931 -303.2271,553.622 -254.4599,208.071 -600.9334,170.7784 -330.7534,-52.9174 -530.2555,-316.9172 -63.92656,-85.3396 -105.54675,-186.1499 L -226.24483,992.16693 Q -255.26396,885.1172 -256.1848,768.5835 -249.38673,410.90985 -23.217316,172.26183 202.95213,-66.386185 545.3516,-77.176285 q 342.4925,7.25959 571.1103,243.563285 228.6177,236.30364 239.1023,593.8883" />
    </g>
    <g
       id="g16"
       style="fill:#61afa7;fill-opacity:1;stroke-linejoin:miter">
      <path
         id="path14"
         d="m 779.5074,878.5615 v 9e-4 l -0.007,-9e-4 q -39.3412,2e-4 -78.67563,2e-4 v 8.6e-4 q 39.34123,-8.6e-4 78.68263,-10e-4 z" />
    </g>
    <g
       id="g20"
       style="fill:#61afa7;fill-opacity:1;stroke-linejoin:miter">
      <path
         id="path18"
         d="m 763.62115,875.6632 15.89472,2.8983 -7e-5,9e-4 z" />
    </g>
    <g
       id="g24"
       style="fill:#61afa7;fill-opacity:1;stroke-linejoin:miter">
      <path
         id="path22"
         d="m 743.9585,872.0783 13.88775,2.5319 v 9.5e-4 L 743.9587,872.0783 Z" />
    </g>
    <g
       id="g28"
       style="fill:#61afa7;fill-opacity:1;stroke-linejoin:miter">
      <path
         id="path26"
         d="m 692.404,871.5623 26.71166,0.2677 24.84284,0.2483 z" />
    </g>
    <g
       id="g32"
       style="fill:#61afa7;fill-opacity:1;stroke-linejoin:miter">
      <path
         id="path30"
         d="m 779.5197,878.5615 v 7e-4 l -0.006,-7e-4 q 0.003,0 0.006,0 z" />
    </g>
    <g
       id="g36"
       style="fill:#000000;fill-opacity:0.211765;stroke-linejoin:miter">
      <path
         id="path34"
         d="M 551.15424,41.709854 Q 256.81158,50.9855 62.385727,256.13806 -132.04013,461.29068 -137.8841,768.76324 q 0.44391,56.18146 8.48493,109.79856 l 76.221344,0.002 v 7e-4 l -0.03285,-12.57244 -0.0048,-1.82831 3e-5,0.009 -1.98e-4,-0.0716 0.02071,7.48784 0.01924,6.9737 q 372.543104,-2.3e-4 745.086074,-3e-4 l 0.45136,-6.9998 -0.44606,6.9998 q 43.79585,0 87.5917,-2e-4 l 0.0124,7e-4 -21.67355,-3.952 v 7.6e-4 l 20.16625,3.67468 v 7.6e-4 l 1.074,0.195 0.43944,0.0801 69.12653,7e-4 v 7e-4 l -30.78882,-5.74515 -159.9693,-29.83615 159.96945,29.83615 421.29002,4.21595 q 1.4136,-8.5539 2.6795,-17.20796 l 5.8178,-98.20484 Q 1238.638,454.225 1042.1074,251.0878 845.5767,47.95055 551.15424,41.709854 Z m 141.76739,821.065106 51.03707,9.30334 v 7e-4 -7e-4 l 13.88755,2.5319 v 7.6e-4 L 743.9585,872.079 692.36176,871.5619 v 7e-4 l 51.59674,0.5157 z" />
    </g>
    <g
       id="g40"
       style="fill:#000000;fill-opacity:0.211765;stroke-linejoin:miter">
      <path
         id="path38"
         d="m -135.27689,892.3241 v 8.5e-4 z" />
    </g>
    <g
       id="g44"
       style="fill:#000000;fill-opacity:0.211765;stroke-linejoin:miter">
      <path
         id="path42"
         d="m -135.31903,876.1962 0.005,2.03946 0.0368,14.08844 z" />
    </g>
    <g
       id="g48"
       style="fill:#3392bd;fill-opacity:1;stroke-linejoin:miter">
      <path
         id="path46"
         d="m 361.8728,1121.1395 -26.7804,8.1669 q -213.15609,67.5061 -273.954888,53.3576 -27.73674,-5.593 -43.706665,-20.7471 -21.0247658,-18.0797 -38.734903,-66.9839 -14.737021,-4.0064 -20.865122,-17.4434 -10.573652,-26.5844 -10.6591,-73.1899 L -53.367462,809.1574 Q -62.799793,589.3166 -59.00923,582.7578 -57.83052,495.82623 0.65539646,481.38046 L 69.0369,466.87115 q 28.31864,-3.65509 53.651,-3.95125 63.46492,-2.26292 321.21383,7.2205 l -82.02893,650.9991" />
    </g>
    <g
       id="g52"
       style="fill:#9bdbf8;fill-opacity:1;stroke-linejoin:miter">
      <path
         id="path50"
         d="m 125.09908,1154.1211 -2e-5,4e-4 -9.73926,-653.92137 q 117.7134,-1.81005 235.42673,-3.6202 l -3.17999,601.45147 -222.50746,56.0897" />
    </g>
    <g
       id="g56"
       style="fill:#3392bd;fill-opacity:1;stroke-linejoin:miter">
      <path
         id="path54"
         d="m 642.3104,799.85315 -2.35215,45.82675 Q 623.3332,984.16656 542.975,1067.1613 462.06073,1150.088 352.4777,1134.3494 247.89838,1112.376 185.24583,1005.9924 165.17142,971.60455 152.18494,931.05817 l -10.91083,-41.68323 q -8.987,-43.02194 -9.064,-89.78681 2.80949,-143.51263 74.82651,-238.77273 72.01698,-95.25974 180.39911,-98.82498 108.37837,3.67788 180.29607,99.01248 71.91804,95.3346 74.5786,238.85025" />
    </g>
    <g
       id="g60"
       style="fill:#00bcd4;fill-opacity:1;stroke-linejoin:miter">
      <path
         id="path58"
         d="m 397.49014,846.82336 v 2.4e-4 q -19.12286,-70.74016 0,-2.4e-4" />
    </g>
    <g
       id="g64"
       style="fill:#d0f0ff;fill-opacity:1;stroke-linejoin:miter">
      <path
         id="path62"
         d="m 567.5905,800.7747 -0.9217,18.31166 q -6.51383,55.33724 -37.9964,88.50074 -31.70023,33.1365 -74.63184,26.8482 -40.97106,-8.78 -65.51616,-51.289 -24.52513,-42.803 -19.8553,-100.78717 6.51367,-55.33733 37.99624,-88.50079 31.70026,-33.13654 74.63186,-26.84804 40.9712,8.77974 65.5163,51.2887 7.8645,13.7408 12.9519,29.94233 l 4.27446,16.65613 q 3.52069,17.19084 3.55064,35.87724" />
    </g>
    <g
       id="g68"
       style="fill:#689eb7;fill-opacity:1;stroke-linejoin:miter">
      <path
         id="path66"
         d="m 543.98914,832.15717 -148.51777,36.34173 26.33588,57.3461 161.2771,44.9993 -0.76745,48.2661 6.52014,4.0113 -1.96058,46.0009 8.03244,2.7436 -3.4172,47.0657 8.6351,4.0365 -3.22,37.8456 320.2905,148.4278 79.651,-56.8967 -0.8045,-48.6675 7.7205,-10.0369 -2.8956,-47.6436 8.2652,-7.256 0.432,-17.1575 160.6031,47.2948 63.9467,-53.7831 22.9602,-149.4838 -649.1185,-118.32427 z" />
    </g>
    <g
       id="g72"
       style="fill:#000000;fill-opacity:1;stroke-linejoin:miter">
      <path
         id="path70"
         d="m 565.6594,864.1586 v 7e-4 q 10.2184,2.36853 13.25326,3.5952 4.86169,2.0754 4.893,2.6385 3.14069,3.08246 -3.65112,7.05317 -4.37034,2.62219 -11.40294,4.89943 -9.0177,2.5419 -11.1883,2.66874 -13.4428,2.15131 -23.48115,-0.94834 -12.68135,-4.1729 -19.94325,-14.22384 -7.25603,-10.05151 -6.4262,-22.02146 l 0.54127,-3.86477 q 0.76855,-3.85993 2.26196,-7.52563 3.07887,-7.4185 7.95422,-13.0171 9.83865,-11.5315 20.62875,-8.8814 5.48576,0.8539 17.46177,10.7087 l 9.09873,38.9181" />
    </g>
    <g
       id="g76"
       style="fill:#000000;fill-opacity:1;stroke-linejoin:miter">
      <path
         id="path74"
         d="m 581.13245,848.3043 v 4e-4 q 0,7e-4 0,-4e-4" />
    </g>
    <g
       id="g80"
       style="fill:#ffbc96;fill-opacity:1;stroke-linejoin:miter">
      <path
         id="path78"
         d="m 540.9556,826.02106 1.36374,-0.76172 q 14.73809,-8.99347 26.48571,-7.76984 6.42969,0.4048 15.45148,3.87494 8.88764,3.47536 14.27847,8.01826 3.51883,3.271 3.5211,6.38756 0.20806,2.60578 -1.8347,7.1883 l 16.40726,5.73854 -15.67556,27.3282 -25.5691,0.1922 q -9.73007,4.3952 -13.8631,5.0455 -5.15,0.89093 -7.3109,-0.9742 -1.21586,-0.71074 -2.31895,-3.547 -0.84875,-2.6772 0.0972,-4.9237 1.25765,-2.6036 6.6246,-2.8552 -16.9058,-2.7104 -21.4533,-4.9233 -3.26173,-1.3544 -5.1187,-3.0656 -1.6966,-1.18933 -2.915,-4.80347 -1.5636,-5.15653 3.72906,-17.99373 l 0.55554,-1.4127 7.5452,-10.74304" />
    </g>
    <g
       id="g84"
       style="fill:#ffffff;fill-opacity:1;stroke-linejoin:miter">
      <path
         id="path82"
         d="m 608.70355,845.3474 v 5e-4 l -12.51185,29.67596 q 3.1988,1.09414 6.39753,2.18818 6.82097,-15.44074 13.64197,-30.88144 l -7.52765,-0.9832" />
    </g>
    <g
       id="g88"
       style="fill:#ffffff;fill-opacity:1;stroke-linejoin:miter">
      <path
         id="path86"
         d="m 611.48566,851.82764 0.68024,-1.30219 q 3.7154,-7.29498 6.45434,-9.9602 2.50926,-2.612 6.27679,-2.62475 1.14197,-0.0459 3.39107,0.35033 l 65.4036,12.39923 -5.6726,89.02524 q -45.0819,-3.743 -65.6393,-8.566 -13.77885,-3.71687 -15.17155,-4.86945 -8.25855,-3.80685 -11.99951,-8.94955 -3.74091,-5.1424 -4.15154,-11.2232 -0.4105,-6.0806 1.32274,-12.7018 2.78931,-13.0706 19.10572,-41.57766" />
    </g>
    <g
       id="g92"
       style="fill:#ffbc96;fill-opacity:1;stroke-linejoin:miter">
      <path
         id="path90"
         d="m 1004.272,934.7849 4.6895,1.5482 q 16.3718,5.36575 22.8578,7.0305 10.7876,2.7476 12.6346,2.92546 13.0957,2.41784 21.1179,0.36859 8.2666,-1.53825 15.6592,-9.49385 0.9812,-0.8739 3.5842,-5.3879 0.7607,-0.684 4.5161,-12.59774 1.6804,-3.08216 2.4043,-3.4638 5.9944,-4.67396 13.1941,-3.19816 3.6062,0.88376 4.6072,4.5893 0.3908,5.5043 -2.1819,11.167 -1.2017,3.0341 -2.7759,6.3291 -10.9253,20.6165 -18.3308,36.9698 -2.2217,4.1487 -4.3853,4.43226 -0.8796,0.2583 -3.1179,-0.13812 -17.2324,-4.87374 -38.6994,-8.32444 -22.6119,-3.7625 -70.7538,-10.4249 l 34.9801,-22.3313" />
    </g>
    <g
       id="g96"
       style="fill:#ffbc96;fill-opacity:1;stroke-linejoin:miter">
      <path
         id="path94"
         d="m 1005.3025,912.4305 4.6897,1.54826 q 16.3716,5.36591 22.8574,7.03074 10.7874,2.7476 12.6345,2.9255 13.096,2.4179 21.1182,0.36865 8.2664,-1.53825 15.6587,-9.49395 0.9812,-0.874 3.5845,-5.38764 0.7605,-0.68416 4.5158,-12.59741 1.6807,-3.08225 2.4041,-3.46375 5.9944,-4.674 13.1946,-3.19824 3.6062,0.88374 4.6069,4.58934 0.3914,5.50435 -2.1819,11.1668 -1.2014,3.03396 -2.7756,6.32906 -10.9253,20.61597 -18.3304,36.96961 -2.2216,4.14873 -4.3852,4.43237 -0.8796,0.25806 -3.1179,-0.13834 -17.2327,-4.87374 -38.6995,-8.3246 -22.6121,-3.76234 -70.7538,-10.4242 l 34.9799,-22.3322" />
    </g>
    <g
       id="g100"
       style="fill:#94ddff;fill-opacity:1;stroke-linejoin:miter">
      <path
         id="path98"
         d="m 594.13525,1042.9818 3.19675,4.8936 q 16.799,27.643 39.10074,34.4151 14.81042,3.9218 26.25596,3.07 l 66.0966,-6.1316 q 19.2569,-1.0022 29.57597,1.4364 6.36163,0.4543 20.59413,9.0635 5.62297,3.9309 10.804,8.6866 17.88586,17.4861 28.1879,24.8435 17.823,11.2686 23.45095,12.4057 41.91995,14.9054 134.76035,18.3573 16.0373,-101.742 26.8733,-140.6469 10.3335,-41.0401 36.6351,-99.1884 l -381.77265,-71.205 q -20.78009,25.8257 -31.42975,61.1595 -10.60333,31.3327 -32.32935,138.8407" />
    </g>
  </g>
</svg>
