<?xml version="1.0" standalone="no"?>
<!DOCTYPE svg PUBLIC "-//W3C//DTD SVG 20010904//EN"
 "http://www.w3.org/TR/2001/REC-SVG-20010904/DTD/svg10.dtd">
<svg version="1.0" xmlns="http://www.w3.org/2000/svg"
 width="3001.000000pt" height="3001.000000pt" viewBox="0 0 3001.000000 3001.000000"
 preserveAspectRatio="xMidYMid meet">
<metadata>
Created by potrace 1.16, written by Peter Selinger 2001-2019
</metadata>
<g transform="translate(0.000000,3001.000000) scale(0.100000,-0.100000)"
fill="#000000" stroke="none">
<path d="M8210 22000 c-762 -50 -1459 -256 -2059 -607 -950 -556 -1802 -1603
-2160 -2656 -262 -769 -266 -1461 -12 -1944 162 -307 445 -551 776 -668 50
-17 51 -18 78 -94 42 -118 110 -225 201 -316 124 -124 271 -202 465 -246 109
-25 353 -36 475 -20 49 6 91 9 93 8 2 -2 -6 -46 -16 -98 -38 -183 -46 -270
-46 -519 1 -397 13 -465 277 -1475 7 -28 12 -35 18 -25 4 8 78 195 165 415 86
220 175 438 199 485 87 177 194 317 362 480 265 255 594 450 1016 601 l107 38
112 -50 c644 -291 1238 -384 1764 -278 191 39 425 131 584 231 230 144 453
377 597 622 l48 83 93 -33 c691 -247 1417 85 1890 864 325 537 437 1124 328
1717 -50 272 -123 483 -265 770 -234 473 -573 903 -1000 1269 -231 198 -618
474 -915 653 -622 375 -1357 637 -2080 742 -337 49 -795 70 -1095 51z m830
-574 c334 -40 509 -83 709 -177 141 -66 255 -144 367 -251 122 -117 167 -180
314 -438 156 -275 189 -327 266 -426 165 -213 375 -345 632 -398 93 -20 202
-30 201 -20 0 5 -46 47 -101 94 -169 144 -289 293 -361 448 -25 55 -218 612
-211 612 8 0 213 -118 309 -178 431 -269 754 -521 1025 -798 471 -482 770
-1041 845 -1579 23 -163 16 -426 -15 -580 -44 -223 -158 -504 -280 -690 -51
-78 -177 -245 -185 -245 -2 0 16 42 40 93 186 392 179 773 -21 1095 -56 90
-202 241 -291 300 -198 133 -401 202 -828 282 -273 51 -358 72 -463 116 -206
85 -371 221 -504 417 -24 34 -107 188 -186 342 -161 313 -226 429 -317 560
-369 532 -842 678 -1355 420 -81 -41 -195 -122 -249 -178 l-33 -35 -78 96
c-43 54 -120 138 -171 187 -92 89 -215 182 -226 171 -3 -3 11 -43 31 -90 85
-198 159 -432 206 -655 31 -148 60 -355 60 -434 l0 -49 98 89 c278 255 516
410 702 458 148 39 279 6 396 -99 134 -119 227 -262 440 -679 199 -389 268
-492 443 -668 152 -151 258 -228 435 -315 165 -81 317 -126 622 -184 306 -58
455 -96 558 -144 309 -144 397 -427 237 -763 -125 -261 -293 -396 -541 -434
-125 -19 -422 5 -508 41 -18 8 -27 6 -45 -11 -40 -37 -330 -174 -457 -216
-347 -114 -646 -96 -954 59 -178 90 -325 194 -686 488 -414 336 -629 491 -853
614 -59 32 -107 60 -107 63 0 2 27 58 61 124 90 177 155 235 304 274 33 8 100
15 155 15 246 -1 426 -89 775 -380 268 -224 452 -334 631 -380 76 -20 204 -27
204 -12 -1 4 -24 23 -51 42 -72 50 -176 164 -379 415 -290 359 -412 485 -587
603 -354 240 -779 286 -1118 122 -200 -96 -332 -244 -461 -515 -30 -63 -56
-115 -59 -115 -2 0 -41 9 -87 20 -178 41 -312 54 -563 54 -821 -2 -1361 -209
-1725 -662 -113 -140 -206 -331 -253 -519 -12 -48 -23 -90 -24 -92 -4 -7 -76
44 -130 93 -147 133 -249 341 -283 581 -5 39 -10 147 -10 240 0 474 160 1028
447 1548 144 262 414 644 585 832 45 49 46 49 51 25 24 -120 54 -226 78 -285
l29 -70 -35 -65 c-136 -249 -157 -313 -190 -580 -38 -309 -7 -559 99 -795 l31
-70 6 170 c9 244 50 386 181 628 78 144 117 199 175 245 l54 44 52 -40 c175
-134 414 -243 638 -290 105 -23 278 -46 285 -39 3 2 -48 42 -113 88 -460 327
-681 590 -764 906 -26 100 -29 286 -6 390 43 199 210 427 435 595 183 137 638
332 993 427 228 60 496 107 754 130 155 15 746 6 905 -13z m-1940 -3991 c305
-50 585 -165 885 -362 160 -106 235 -162 495 -373 308 -250 399 -322 507 -398
287 -202 535 -320 808 -383 142 -33 431 -38 595 -10 69 11 136 23 150 27 41 9
-126 -143 -225 -205 -474 -297 -1206 -239 -1979 156 l-117 60 -127 -33 c-533
-137 -1070 -429 -1447 -786 l-86 -81 7 44 c29 200 85 384 152 498 22 36 207
266 411 511 204 245 371 448 371 452 0 4 -20 -1 -45 -12 -358 -154 -1070 -438
-1165 -465 -446 -128 -781 -103 -900 69 -54 79 -81 206 -81 376 1 231 109 450
309 623 205 178 484 270 932 307 144 12 435 4 550 -15z"/>
<path d="M14165 14543 c-712 -45 -1307 -373 -1668 -918 -135 -204 -252 -488
-301 -735 -39 -194 -49 -329 -43 -559 17 -598 214 -1103 576 -1475 307 -315
687 -499 1154 -561 138 -18 460 -20 605 -4 231 25 467 88 646 174 159 75 360
219 472 337 52 53 184 219 184 229 0 13 -430 461 -472 493 -45 33 -115 56
-173 56 -79 0 -139 -27 -252 -112 -190 -142 -311 -185 -555 -195 -167 -7 -262
5 -378 46 -335 118 -552 419 -616 853 -24 164 -15 433 19 578 106 446 387 724
795 785 278 42 523 -7 743 -150 41 -26 100 -62 133 -79 56 -29 67 -31 165 -31
169 0 177 6 455 380 102 138 186 253 186 256 0 4 -49 54 -109 111 -325 312
-753 487 -1266 518 -155 10 -195 10 -300 3z"/>
<path d="M7660 12997 c0 -827 3 -1768 7 -2091 l6 -587 961 4 c1048 3 1017 2
1281 64 159 37 291 85 450 163 348 170 610 407 812 731 298 479 386 1113 237
1704 -83 325 -258 643 -489 884 -262 274 -647 486 -1047 575 -242 54 -285 56
-1290 56 l-928 0 0 -1503z m1895 535 c406 -87 660 -384 729 -855 21 -136 21
-398 0 -534 -54 -370 -229 -641 -497 -773 -179 -88 -209 -93 -609 -98 l-348
-4 0 1148 0 1147 318 -6 c258 -5 334 -10 407 -25z"/>
<path d="M17809 14473 c-5 -16 -369 -955 -808 -2088 l-797 -2060 470 -3 c309
-1 489 1 523 9 62 12 133 48 183 92 85 74 99 103 216 446 l112 326 663 3 664
2 109 -321 c78 -228 120 -338 146 -378 41 -64 114 -122 193 -155 50 -20 67
-21 555 -24 326 -2 503 1 500 7 -1 5 -365 946 -808 2090 l-805 2081 -553 0
-553 0 -10 -27z m747 -1853 c97 -289 179 -531 181 -537 4 -10 -73 -13 -364
-13 l-369 0 128 383 c134 402 239 699 244 694 2 -2 83 -239 180 -527z"/>
<path d="M21190 12410 l0 -2090 520 0 520 0 0 1120 c0 616 3 1120 8 1119 4 0
381 -473 837 -1051 886 -1123 874 -1108 1003 -1160 55 -22 69 -23 425 -26
l367 -3 0 2090 0 2091 -525 0 -525 0 -2 -1121 -3 -1121 -675 854 c-1042 1318
-1011 1280 -1073 1321 -94 63 -127 67 -524 67 l-353 0 0 -2090z"/>
<path d="M11530 9519 c-226 -38 -370 -258 -332 -506 7 -42 23 -101 36 -130 73
-158 262 -254 446 -226 144 23 245 96 307 220 35 70 38 84 41 178 5 128 -9
196 -57 277 -86 143 -260 217 -441 187z m231 -136 c128 -71 183 -252 128 -428
-38 -125 -138 -195 -275 -195 -160 0 -270 99 -293 265 -19 130 19 257 97 326
59 52 117 70 213 66 63 -3 86 -9 130 -34z"/>
<path d="M18440 9523 c-112 -13 -225 -78 -287 -165 -118 -164 -106 -429 26
-580 130 -148 411 -169 559 -42 48 41 51 52 19 82 -28 26 -50 28 -68 5 -31
-37 -110 -63 -194 -63 -92 0 -149 21 -203 73 -125 120 -131 374 -11 497 63 64
117 85 224 85 83 0 94 -2 147 -32 32 -18 64 -33 72 -33 15 0 56 50 56 68 0 14
-87 68 -135 85 -45 16 -152 26 -205 20z"/>
<path d="M19258 9519 c-128 -19 -244 -105 -298 -222 -92 -195 -40 -443 117
-563 74 -56 144 -77 258 -77 114 0 184 21 258 77 190 145 220 467 60 656 -84
100 -244 152 -395 129z m222 -135 c108 -58 155 -160 148 -318 -9 -196 -114
-306 -292 -306 -122 0 -222 60 -266 162 -32 71 -39 212 -16 291 40 136 148
211 296 204 61 -3 87 -9 130 -33z"/>
<path d="M20237 9519 c-206 -30 -347 -204 -347 -429 0 -230 134 -395 349 -432
106 -18 233 0 329 47 l72 36 -2 167 -3 167 -132 3 -133 3 0 -39 c0 -53 13 -62
92 -62 l69 0 -3 -92 -3 -92 -50 -19 c-166 -62 -347 -10 -417 119 -75 139 -53
347 45 442 58 56 120 77 228 77 88 0 101 -2 159 -32 34 -18 71 -33 80 -33 10
0 27 15 38 32 19 30 20 34 5 51 -29 32 -136 77 -208 87 -79 11 -87 11 -168 -1z"/>
<path d="M23570 9519 c-224 -38 -368 -257 -331 -506 29 -193 156 -324 347
-355 134 -23 290 27 374 118 174 189 145 536 -57 675 -87 60 -219 87 -333 68z
m226 -132 c59 -30 98 -72 127 -137 17 -37 21 -66 21 -160 1 -106 -1 -119 -27
-172 -51 -104 -141 -158 -263 -158 -182 0 -294 124 -294 324 0 172 61 271 199
323 58 21 175 12 237 -20z"/>
<path d="M7457 9513 c-4 -3 -7 -197 -7 -430 l0 -423 185 0 c101 0 208 5 237
11 126 27 224 103 280 217 30 60 33 77 36 173 3 80 0 121 -13 165 -45 157
-161 257 -325 283 -71 12 -383 15 -393 4z m443 -119 c140 -64 206 -252 152
-431 -27 -85 -66 -134 -140 -170 -53 -26 -67 -28 -199 -31 l-143 -4 0 332 0
332 143 -4 c116 -3 150 -8 187 -24z"/>
<path d="M8380 9090 l0 -430 260 0 260 0 0 50 0 50 -200 0 -200 0 0 145 0 145
165 0 165 0 0 45 0 45 -165 0 -165 0 0 140 0 140 200 0 200 0 0 50 0 50 -260
0 -260 0 0 -430z"/>
<path d="M9002 9502 c3 -10 81 -204 173 -430 l168 -413 55 3 54 3 169 414 c93
228 169 421 169 429 0 22 -106 11 -123 -12 -6 -10 -70 -166 -142 -347 -71
-181 -132 -323 -133 -317 -2 7 -62 160 -134 341 -84 213 -136 331 -148 337
-10 6 -40 10 -66 10 -40 0 -46 -3 -42 -18z"/>
<path d="M9930 9090 l0 -430 265 0 265 0 0 50 0 50 -205 0 -205 0 0 145 0 145
165 0 165 0 0 45 0 45 -165 0 -165 0 0 140 0 140 205 0 205 0 0 50 0 50 -265
0 -265 0 0 -430z"/>
<path d="M10650 9090 l0 -430 245 0 245 0 0 50 0 50 -185 0 -185 0 0 380 0
380 -60 0 -60 0 0 -430z"/>
<path d="M12230 9091 l0 -431 60 0 60 0 0 160 0 160 95 0 c120 0 184 14 242
53 67 45 104 109 110 191 8 94 -10 150 -67 207 -69 69 -111 80 -322 86 l-178
6 0 -432z m369 304 c58 -34 76 -68 76 -143 0 -125 -62 -171 -227 -172 l-98 0
0 171 0 171 108 -3 c84 -3 114 -8 141 -24z"/>
<path d="M12970 9090 l0 -430 55 0 55 0 2 327 3 327 144 -258 c150 -269 167
-291 214 -269 14 8 69 97 162 268 l140 258 3 -327 2 -326 55 0 55 0 0 430 0
430 -53 0 c-39 0 -58 -5 -69 -17 -8 -10 -82 -139 -163 -288 -81 -148 -150
-274 -152 -278 -3 -4 -75 117 -160 270 -86 153 -163 286 -171 296 -11 12 -30
17 -69 17 l-53 0 0 -430z"/>
<path d="M14090 9090 l0 -430 265 0 265 0 0 50 0 50 -205 0 -205 0 0 145 0
145 165 0 165 0 0 45 0 45 -165 0 -165 0 0 140 0 140 205 0 205 0 0 50 0 50
-265 0 -265 0 0 -430z"/>
<path d="M14810 9090 l0 -430 55 0 56 0 -3 325 c-2 179 -2 325 -1 325 1 0 97
-125 214 -277 299 -391 283 -373 330 -373 l39 0 0 430 0 430 -50 0 -50 0 -2
-325 -3 -326 -220 288 c-282 368 -277 363 -326 363 l-39 0 0 -430z"/>
<path d="M15650 9465 l0 -55 140 0 140 0 0 -375 0 -375 60 0 60 0 0 375 0 375
135 0 135 0 0 55 0 55 -335 0 -335 0 0 -55z"/>
<path d="M16465 9103 c-92 -230 -169 -424 -172 -430 -8 -21 91 -17 114 5 11 9
37 61 57 115 l38 97 190 -2 190 -3 38 -98 c21 -54 44 -104 50 -112 8 -10 31
-15 67 -15 47 0 54 2 49 18 -3 9 -80 202 -170 427 l-164 410 -60 3 -60 3 -167
-418z m235 265 c0 -7 32 -94 70 -193 38 -99 70 -183 70 -187 0 -5 -68 -8 -151
-8 l-150 0 7 23 c4 12 35 96 70 185 35 90 64 170 64 178 0 8 5 14 10 14 6 0
10 -6 10 -12z"/>
<path d="M17227 9513 c-4 -3 -7 -197 -7 -430 l0 -423 245 0 245 0 0 50 0 50
-182 2 -183 3 -3 378 -2 377 -53 0 c-30 0 -57 -3 -60 -7z"/>
<path d="M20840 9090 l0 -430 50 0 50 0 2 326 3 327 225 -294 c289 -377 273
-359 321 -359 l39 0 0 430 0 430 -50 0 -50 0 -2 -326 -3 -326 -225 293 c-289
377 -273 359 -321 359 l-39 0 0 -430z"/>
<path d="M21790 9090 l0 -430 60 0 60 0 -2 428 -3 427 -57 3 -58 3 0 -431z"/>
<path d="M22070 9465 l0 -55 140 0 140 0 0 -375 0 -375 60 0 60 0 0 375 0 375
135 0 135 0 0 55 0 55 -335 0 -335 0 0 -55z"/>
<path d="M22910 9090 l0 -430 60 0 60 0 0 430 0 430 -60 0 -60 0 0 -430z"/>
<path d="M24260 9090 l0 -430 50 0 50 0 2 325 3 326 205 -268 c301 -392 293
-383 340 -383 l40 0 0 430 0 430 -50 0 -50 0 -2 -327 -3 -327 -229 300 c-126
164 -240 311 -254 327 -20 20 -35 27 -64 27 l-38 0 0 -430z"/>
<path d="M13932 8082 c-196 -70 -304 -262 -273 -487 25 -178 134 -308 296
-349 112 -30 251 -14 340 39 145 85 223 266 196 454 -22 148 -100 260 -226
322 -64 31 -78 34 -175 37 -83 2 -116 -2 -158 -16z m272 -110 c55 -25 106 -76
137 -138 21 -43 24 -62 24 -164 0 -99 -3 -122 -23 -166 -48 -106 -146 -167
-267 -167 -181 0 -295 127 -295 328 0 171 73 283 208 322 60 16 159 10 216
-15z"/>
<path d="M17236 8081 c-85 -28 -159 -83 -206 -153 -53 -80 -73 -152 -73 -263
-1 -168 63 -292 193 -375 130 -83 373 -79 518 10 l32 20 0 165 0 165 -131 0
-130 0 3 -42 3 -43 73 -3 72 -3 0 -93 0 -94 -42 -17 c-64 -27 -203 -32 -269
-10 -68 23 -139 89 -170 158 -21 44 -24 68 -24 162 0 94 3 118 23 161 76 168
298 223 478 118 51 -30 67 -27 90 18 l17 32 -34 28 c-60 50 -132 71 -254 75
-88 2 -122 -1 -169 -16z"/>
<path d="M19456 8081 c-85 -28 -159 -83 -206 -153 -54 -81 -74 -152 -74 -263
1 -168 65 -292 194 -375 130 -83 373 -79 518 10 l32 20 0 165 0 165 -131 0
-130 0 3 -42 3 -43 73 -3 72 -3 0 -93 0 -94 -42 -17 c-26 -11 -79 -20 -133
-23 -118 -5 -183 17 -247 86 -68 72 -91 143 -86 262 5 112 29 178 86 233 101
99 280 112 418 31 51 -30 67 -27 90 18 l17 32 -34 28 c-60 50 -132 71 -254 75
-88 2 -122 -1 -169 -16z"/>
<path d="M7527 7672 c-92 -229 -167 -420 -167 -425 0 -13 107 -8 118 6 6 7 28
58 50 112 l38 100 190 3 189 2 45 -112 45 -113 62 -3 61 -3 -170 426 -170 425
-62 0 -62 0 -167 -418z m293 123 c34 -88 68 -177 76 -197 l13 -38 -153 0 -153
0 76 199 c42 109 77 198 77 197 1 0 30 -73 64 -161z"/>
<path d="M8290 7666 l0 -426 50 0 50 0 2 325 3 325 234 -305 c129 -167 243
-314 253 -325 13 -13 32 -20 58 -20 l40 0 0 425 0 425 -50 0 -50 0 -2 -322 -3
-323 -245 320 -246 320 -47 3 -47 3 0 -425z"/>
<path d="M9220 7664 l0 -426 218 4 218 3 76 38 c125 61 196 161 219 307 28
182 -41 351 -179 438 -83 53 -134 62 -354 62 l-198 0 0 -426z m438 306 c66
-29 123 -91 152 -166 18 -50 21 -74 18 -154 -6 -143 -53 -230 -153 -283 -35
-19 -60 -22 -187 -25 l-148 -4 0 333 0 332 134 -6 c106 -4 143 -10 184 -27z"/>
<path d="M10400 7665 l0 -425 50 0 50 0 2 323 3 324 248 -324 248 -323 45 0
44 0 0 425 0 425 -55 0 -56 0 3 -319 c2 -176 0 -317 -4 -315 -4 3 -116 146
-249 319 l-242 315 -43 0 -44 0 0 -425z"/>
<path d="M11320 7665 l0 -425 265 0 265 0 0 50 0 50 -205 0 -205 0 0 140 0
140 165 0 165 0 0 50 0 50 -165 0 -165 0 0 135 0 135 205 0 205 0 0 50 0 50
-265 0 -265 0 0 -425z"/>
<path d="M12032 7788 c5 -348 8 -363 89 -452 71 -78 128 -101 254 -101 89 0
106 3 157 28 70 34 131 101 158 173 18 51 20 78 20 354 l0 300 -60 0 -60 0 0
-289 c0 -304 -3 -329 -48 -390 -72 -96 -255 -97 -335 -1 -50 59 -57 108 -57
407 l0 273 -61 0 -61 0 4 -302z"/>
<path d="M12950 7665 l0 -425 60 0 60 0 0 175 0 176 62 -3 62 -3 121 -167 c68
-95 129 -170 141 -173 11 -4 43 -5 72 -3 l52 3 -136 184 c-74 101 -134 184
-132 185 89 39 126 67 156 117 32 51 33 58 30 135 -3 90 -24 132 -84 173 -60
41 -116 51 -296 51 l-168 0 0 -425z m314 325 c147 -34 168 -217 32 -287 -20
-10 -66 -18 -128 -21 l-98 -5 0 162 0 161 78 0 c42 0 95 -5 116 -10z"/>
<path d="M14700 7665 l0 -425 60 0 60 0 0 425 0 425 -60 0 -60 0 0 -425z"/>
<path d="M15070 7665 l0 -425 55 0 55 0 2 327 3 326 139 -249 c76 -137 145
-257 154 -266 8 -10 27 -18 42 -18 15 0 34 8 42 18 8 9 77 132 154 272 l139
255 3 -332 2 -333 50 0 50 0 0 425 0 426 -61 -3 -61 -3 -154 -279 c-84 -154
-156 -285 -159 -290 -3 -7 -7 -7 -10 -1 -3 6 -76 136 -163 290 l-157 280 -63
3 -62 3 0 -426z"/>
<path d="M16267 7672 c-92 -229 -167 -420 -167 -425 0 -13 107 -8 118 6 6 7
28 57 49 112 l39 100 189 3 190 2 29 -77 c16 -43 38 -95 48 -115 18 -37 19
-38 77 -38 l59 0 -170 425 -170 425 -62 0 -62 0 -167 -418z m298 108 c37 -96
71 -185 76 -197 l9 -23 -154 0 -153 0 76 199 c42 109 77 198 78 197 0 0 31
-80 68 -176z"/>
<path d="M17930 7665 l0 -425 60 0 60 0 0 425 0 425 -60 0 -60 0 0 -425z"/>
<path d="M18300 7665 l0 -425 50 0 50 0 2 324 3 324 230 -300 c127 -165 240
-311 252 -324 16 -18 32 -24 63 -24 l40 0 0 425 0 425 -50 0 -50 0 0 -321 c0
-183 -4 -318 -9 -315 -5 3 -117 148 -250 321 l-242 315 -45 0 -44 0 0 -425z"/>
<path d="M20380 7665 l0 -425 245 0 245 0 0 50 0 50 -185 0 -185 0 0 375 0
375 -60 0 -60 0 0 -425z"/>
<path d="M21092 7665 l-170 -425 58 0 c34 0 62 5 68 13 5 6 27 58 48 114 l39
103 190 0 190 0 34 -93 c50 -135 51 -137 116 -137 30 0 55 3 55 7 0 5 -75 196
-167 425 l-167 418 -62 0 -62 0 -170 -425z m331 38 l55 -143 -154 0 -154 0 13
33 c8 17 43 108 78 200 l63 168 22 -58 c12 -32 47 -122 77 -200z"/>
<path d="M21860 7664 l0 -426 208 4 c228 5 248 9 318 70 48 42 74 100 74 166
0 91 -42 154 -125 183 -19 7 -35 16 -35 19 0 3 17 14 37 25 116 63 126 248 19
330 -60 46 -112 55 -313 55 l-183 0 0 -426z m359 320 c70 -20 94 -56 88 -136
-6 -101 -71 -138 -239 -138 l-88 0 0 145 0 145 93 0 c55 0 115 -6 146 -16z
m43 -377 c48 -20 78 -69 78 -125 0 -106 -56 -142 -237 -150 l-123 -5 0 153 0
153 123 -5 c79 -3 135 -11 159 -21z"/>
</g>
</svg>
