<?xml version="1.0" encoding="UTF-8" standalone="no"?>
<!DOCTYPE svg PUBLIC "-//W3C//DTD SVG 1.1//EN" "http://www.w3.org/Graphics/SVG/1.1/DTD/svg11.dtd">
<svg width="100%" height="100%" viewBox="0 0 253 307" version="1.1" xmlns="http://www.w3.org/2000/svg" xmlns:xlink="http://www.w3.org/1999/xlink" xml:space="preserve" xmlns:serif="http://www.serif.com/" style="fill-rule:evenodd;clip-rule:evenodd;stroke-linecap:round;stroke-linejoin:round;stroke-miterlimit:1.5;">
    <g transform="matrix(1,0,0,1,-21.3169,-11.2467)">
        <g transform="matrix(1,0,0,1,0,1)">
            <path d="M86.192,216.241L207.872,216.241L86.565,216.241" style="fill:none;stroke:white;stroke-width:18px;"/>
        </g>
        <g transform="matrix(4.25768,0,0,3.57545,-370.64,-338.073)">
            <path d="M107.335,138.03C106.511,138.03 105.906,137.696 105.52,137.028C105.134,136.359 105.134,135.524 105.52,134.522L112.07,117.732C112.386,116.917 112.772,116.322 113.228,115.946C113.684,115.57 114.218,115.382 114.832,115.382C115.429,115.382 115.955,115.57 116.411,115.946C116.867,116.322 117.252,116.917 117.568,117.732L124.118,134.522C124.521,135.545 124.539,136.386 124.171,137.043C123.802,137.701 123.224,138.03 122.435,138.03C121.733,138.03 121.194,137.842 120.817,137.466C120.44,137.09 120.102,136.485 119.804,135.649L118.962,133.269L110.676,133.269L109.834,135.649C109.519,136.485 109.194,137.09 108.861,137.466C108.528,137.842 108.019,138.03 107.335,138.03ZM114.78,121.679L112.254,128.852L117.358,128.852L114.832,121.679L114.78,121.679Z" style="fill:white;fill-rule:nonzero;"/>
            <path d="M130.642,136.777C129.555,136.777 129.011,136.119 129.011,134.804L129.011,130.606L125.565,130.606C124.513,130.606 123.987,129.99 123.987,128.758C123.987,127.526 124.513,126.91 125.565,126.91L129.011,126.91L129.011,122.869C129.011,121.574 129.555,120.927 130.642,120.927C131.729,120.927 132.273,121.574 132.273,122.869L132.273,126.91L135.719,126.91C136.771,126.91 137.297,127.526 137.297,128.758C137.297,129.99 136.771,130.606 135.719,130.606L132.273,130.606L132.273,134.804C132.273,136.119 131.729,136.777 130.642,136.777Z" style="fill:white;fill-rule:nonzero;"/>
        </g>
        <path d="M86.53,185.896L208.085,185.896" style="fill:none;stroke:white;stroke-width:18px;"/>
        <g transform="matrix(0.979647,0,0,0.99305,1.37025,-2.71862)">
            <path d="M268.565,47.691C268.565,34.133 257.407,23.126 243.664,23.126L54.449,23.126C40.706,23.126 29.548,34.133 29.548,47.691L29.548,288.722C29.548,302.28 40.706,313.287 54.449,313.287L243.664,313.287C257.407,313.287 268.565,302.28 268.565,288.722L268.565,47.691Z" style="fill:none;stroke:white;stroke-width:18.25px;"/>
        </g>
        <path d="M86.625,250.109L183.57,250.109" style="fill:none;stroke:white;stroke-width:18px;"/>
    </g>
</svg>
